<?xml version="1.0" encoding="UTF-8"?><svg xmlns="http://www.w3.org/2000/svg" viewBox="0 0 129.06 129.07"><defs><style>.d{fill:#eee562;}.e{fill:#fff;}.f{fill:#cf0f31;}</style></defs><g id="a"/><g id="b"><g id="c"><g><path class="f" d="M129.06,100.92c0,15.48-12.67,28.14-28.13,28.14H28.14c-15.48,0-28.14-12.67-28.14-28.14V28.14C0,12.66,12.65,0,28.14,0H100.93c15.47,0,28.13,12.66,28.13,28.14V100.92Z"/><g><path class="e" d="M34.15,29.73v13.9c-1.88-1.09-4.14-1.74-6.76-1.74-9.35,0-14.32,7.28-14.32,14.17s4.97,14.15,14.32,14.15c7.03,0,9.66-3.39,14.55-5.64V29.73h-7.79m-13.28,26.32c0-3.45,2.34-6.84,6.68-6.84s6.62,3.25,6.7,6.66v.35c-.08,3.42-2.35,6.67-6.7,6.67s-6.68-3.39-6.68-6.84"/><g><path class="e" d="M51.19,64.4h.39c3.59,0,3.67-.03,3.67-1.89v-4.77c-1.35,.39-2.95,.78-4.48,1.14l-.96-4.38c1.92-.36,3.8-.85,5.44-1.32v-6.19h-4.55v-4.27h4.55v-5.48h4.23v5.48h3.94v4.27h-3.94v4.77c1.92-.71,3.31-1.35,3.94-1.64v4.31c-.67,.36-2.06,1.03-3.94,1.78v6.58c0,4.88-.25,5.94-6.58,6.12l-1.7-4.52Zm26.54,4.73c-.39-1.49-.78-2.88-1.18-4.16-3.77,1.28-8.25,2.28-15.86,3.42l-.96-4.55c.82-.07,1.85-.25,2.42-.32,2.66-8.08,4.84-16.8,6.44-26.05l4.7,.78c-1.67,8.72-3.7,16.58-6.02,24.44,3.42-.6,5.87-1.24,7.9-1.96-.82-2.46-1.81-4.73-2.88-7.26l3.77-1.99c2.17,4.91,3.88,8.86,5.87,15.48l-4.2,2.17Z"/><path class="e" d="M101.27,64.86c-1.28,.96-4.45,2.95-7.69,2.95-4.66,0-8.25-3.77-8.25-14.31,0-5.16,.78-10.25,1.39-13.56h4.84c-.96,4.73-1.53,9.39-1.53,14.09,0,5.59,1.42,9,4.16,9,2.49,0,5.2-2.17,7.08-3.73v5.55Zm8.44-.18c0-9.08-1.03-16.09-6.19-23.91h5.37c3.52,5.62,5.66,12.53,5.66,23.91h-4.84Z"/></g></g><g><path class="d" d="M44.25,94.2c0,4.92-4,8.93-8.93,8.93s-8.91-4.01-8.91-8.93,4-8.93,8.91-8.93,8.93,4,8.93,8.93Z"/><path class="d" d="M73.45,94.2c0,4.92-4,8.93-8.92,8.93s-8.92-4.01-8.92-8.93,3.99-8.93,8.92-8.93,8.92,4,8.92,8.93Z"/><path class="d" d="M102.66,94.2c0,4.92-4.01,8.93-8.93,8.93s-8.93-4.01-8.93-8.93,4-8.93,8.93-8.93,8.93,4,8.93,8.93Z"/></g></g></g></g></svg>