<?xml version="1.0" encoding="UTF-8"?><svg xmlns="http://www.w3.org/2000/svg" viewBox="0 0 211.36 79.4"><defs><style>.d{fill:#bf0000;}</style></defs><g id="a"/><g id="b"><g id="c"><g><g><path class="d" d="M211.36,15.28l-17.4,52.74c-1.85,5.62-5.93,8.78-11.16,8.78-3.31,0-6.31-1.23-8.62-3.47l3.23-5c1.54,1.39,3,2,4.93,2,2.7,0,4-1.15,5.31-4.77l1.08-2.93-16.78-47.35h7.16l12.86,37.65,12.16-37.65h7.24Z"/><path class="d" d="M158.36,58.47c-3.77,4.47-8.08,6.54-13.7,6.54-12.7,0-21.4-10.39-21.4-25.48s8.78-25.41,21.56-25.41c5.77,0,9.78,1.69,13.63,5.7l1-4.54h6.16V63.78h-6.16l-1.08-5.31Zm-27.72-18.94c0,11.01,6.01,19.02,14.17,19.02s14.09-7.93,14.09-18.94-5.93-19.02-14.17-19.02-14.09,8.08-14.09,18.94Z"/><path class="d" d="M101.84,3.19c10.86,0,18.55,7.47,18.55,18.17s-7.7,18.25-18.55,18.25h-13.16v24.17h-6.93V3.19h20.09Zm-.46,29.95c6.78,0,11.63-4.93,11.63-11.78s-4.77-11.7-11.63-11.7h-12.7v23.48h12.7Z"/></g><g><polygon class="d" points="10.64 79.4 0 70.47 74.62 70.47 10.64 79.4"/><path class="d" d="M22.76,63.78v-19.78h8.57l14.84,19.78h15.17l-17.93-23.87c5.59-4.01,9.26-10.53,9.26-17.92C52.67,9.86,42.8,0,30.67,0H10.64V63.78h12.12Zm0-51.67h7.91c5.44,0,9.89,4.43,9.89,9.88s-4.45,9.89-9.89,9.89h-7.91V12.11Z"/></g></g></g></g></svg>