<?xml version="1.0" encoding="UTF-8"?><svg xmlns="http://www.w3.org/2000/svg" viewBox="0 0 130 130"><defs><style>.d{fill:#eb5505;}.e{fill:#fff;}.f{fill:#fefefe;}</style></defs><g id="a"/><g id="b"><g id="c"><g><path class="e" d="M130,65V7.8c0-4.29-3.51-7.8-7.8-7.8H7.8C3.51,0,0,3.51,0,7.8v57.2H130Z"/><path class="d" d="M130,65v57.2c0,4.29-3.51,7.8-7.8,7.8H7.8c-4.29,0-7.8-3.51-7.8-7.8v-57.2H130Z"/><g><path class="f" d="M80.02,107.92h-6.51l-2.31-6.73h-12.5l-2.31,6.73h-6.51l12.66-34.54h4.8l12.67,34.54m-19.46-12.09h8.88l-4.37-12.8-4.51,12.8Z"/><path class="f" d="M38.32,97.38c6.62,0,12-5.38,12-12s-5.38-12-12-12h-13.33v34.54h6.11v-10.54h7.22m-7.22-5.54v-12.87h6.68c3.55,0,6.44,2.89,6.44,6.44s-2.89,6.44-6.44,6.44h-6.68Z"/><path class="f" d="M107.09,73.38h-7.11l-8.49,17.38-8.49-17.38h-7.11l12.54,24.29v10.25h6.12v-10.25l12.54-24.29Z"/></g><g><path class="d" d="M122.2,1.93c3.24,0,5.87,2.63,5.87,5.87V122.2c0,3.24-2.63,5.87-5.87,5.87H7.8c-3.24,0-5.87-2.63-5.87-5.87V7.8C1.93,4.56,4.56,1.93,7.8,1.93H122.2m0-1.93H7.8C3.51,0,0,3.51,0,7.8V122.2c0,4.29,3.51,7.8,7.8,7.8H122.2c4.29,0,7.8-3.51,7.8-7.8V7.8c0-4.29-3.51-7.8-7.8-7.8h0Z"/><path class="d" d="M113.95,34.16h-4.94s-.07,.02-.09,.05c-3.97,6.05-8.52,12.15-12.23,15.65-1.29,1.21-3.32,2.69-4.66,2.69-1.14,0-1.79-1.09-.86-4.56,.57-2.13,6.28-23.5,6.75-25.22,.02-.06-.02-.11-.08-.11-1.89-.01-9.87-.23-12.57,9.86,0,0-1.76,6.54-2.5,9.3-.5,1.67-1.2,3.21-2.09,4.57-2.96,4.53-7.16,6.44-9.63,6.44-1.52,0-2.38-.65-2.66-1.8-.27-1.12,.28-3.42,.57-4.54,.16-.59,2.69-10.05,4.52-16.86,.94-3.51,1.68-6.27,1.83-6.84h0s0-.02,0-.02c0-.05-.03-.08-.09-.09-1.89-.01-9.85-.23-12.56,9.84,0,0-3.03,11.24-3.03,11.24-.2,.68-.72,2.07-1.58,3.32-1.94,2.78-5.38,5.48-7.2,5.48-1.3,0-1.81-1.21-.92-4.56l6.75-25.22c.01-.06-.02-.11-.09-.11h-2.89c-10.63,0-18.2,1.71-23.82,5.39-9.43,6.16-11.82,18.36-11.82,20.87,0,2.68,.83,8.28,10.11,8.28,.11,0,.22,0,.33,0,5.62-.11,9.6-3.09,12.02-5.85,.05-.07,.14-.16,.2-.24,.04-.05,.08-.03,.09,.03,.96,5.36,5.86,5.79,7.39,5.79,5.79,0,10.04-4.23,11.23-5.8,.04-.05,.08-.04,.09,.02,.61,2.74,2.75,6.06,9.89,6.06,5.8,0,9.89-3.05,12.35-5.85,.07-.08,.14-.16,.2-.24,.04-.05,.08-.03,.1,.03,.88,4.94,5.18,5.78,7.3,5.78,4.72,0,8.1-2.15,11.83-6.08,4.49-4.73,10.37-12.96,12.81-16.58,.03-.05,.01-.09-.05-.09m-68.38-7.41l-3.87,14.49c-.51,1.9-1.27,3.63-2.26,5.15-2.96,4.53-6.92,6.44-9.63,6.44-3.02,0-3.11-2.52-2.08-6.36,4.09-15.29,13.26-18.85,17.75-19.8,.06-.01,.1,.03,.08,.09"/></g></g></g></g></svg>